<svg id="svg" version="1.1" viewBox="0 0 300 261.42857142857133" width="300" height="261.42857142857133" xmlns="http://www.w3.org/2000/svg"><svg xmlns="http://www.w3.org/2000/svg"><defs><clipPath id="clip-1"><rect x="0" y="0" transform="scale(0.14648,0.14646)" width="2048" height="1785" fill="none"/></clipPath></defs><g clip-path="url(#clip-1)" fill="none" fill-rule="nonzero" stroke="none" stroke-width="1" stroke-linecap="butt" stroke-linejoin="miter" stroke-miterlimit="10" stroke-dasharray="" stroke-dashoffset="0" font-family="none" font-weight="none" font-size="none" text-anchor="none" style="mix-blend-mode: normal"><path d="M220.87646,134.29168c-16.4502,0.27505 -31.12646,14.80901 -41.49902,26.22546c-3.57715,3.93827 -6.93311,8.3086 -10.26855,12.46509c-5.41699,6.64629 -10.7666,13.34677 -16.04883,20.09998c-4.94824,6.20838 -9.73828,12.31717 -15.16699,18.04223c-15.09946,15.92151 -34.13408,27.97798 -56.67231,28.15666c-21.49453,0.21529 -40.74375,-8.96034 -52.93682,-26.85611c-7.41416,-10.88187 -10.81948,-20.43097 -10.79663,-33.81436c0.03047,-17.92214 6.9145,-34.9976 20.91343,-46.51891c9.8228,-8.11644 22.1168,-12.64743 34.8583,-12.8472c17.7063,-0.19406 34.68369,9.17768 46.74668,21.39482c2.23828,2.26674 15.98892,16.37012 16.21831,18.41468c-0.13257,0.38226 -0.48472,1.16435 -0.74238,1.44555c-1.16382,1.26833 -6.93809,8.73772 -7.99102,9.32648c-0.75908,-0.07469 -1.41636,-0.85385 -1.89404,-1.43822c-2.94053,-3.59409 -6.00806,-7.53676 -9.1938,-10.92288c-9.90586,-10.52891 -22.42046,-21.4307 -37.35513,-23.08597c-11.32646,-1.28151 -22.0125,1.40835 -30.87568,8.74856c-9.60044,7.95036 -14.7397,17.96959 -15.7897,30.31898c-2.2667,25.93928 17.25806,48.86005 43.20396,51.07743c15.89678,1.35767 29.13369,-3.5897 41.55337,-13.53717c8.82524,-7.06809 15.04175,-15.24341 22.04312,-23.98699c5.48364,-6.76639 10.91689,-13.57525 16.38369,-20.35481c0.57861,-0.73815 0.95508,-1.6623 1.52344,-2.40192c0.6123,-0.77623 1.50293,-1.48948 2.10791,-2.254c7.63184,-9.64283 16.05176,-19.16909 25.33301,-27.26883c10.68164,-9.32136 24.33838,-15.38884 38.58398,-15.52271c17.354,-0.16301 33.44971,7.23344 44.61768,20.46891c7.64355,9.05934 11.62207,19.65562 12.91113,31.32544c2.6543,20.41926 -6.20068,41.24274 -22.11768,54.32149c-12.8335,10.36341 -29.22363,15.27709 -45.6416,13.6807c-18.24756,-1.85417 -33.07178,-10.46447 -45.50537,-23.69407c-2.34668,-2.49712 -6.62695,-6.47054 -8.31152,-9.34406c0.76904,-1.32838 7.94385,-10.17887 9.03223,-10.62118c0.90967,0.23873 3.30908,3.3583 4.08105,4.25316c2.0625,2.43268 4.22021,4.78334 6.47168,7.04319c12.49072,12.41236 27.18604,19.46727 44.85059,17.90456c24.92725,-2.2042 43.58203,-23.19025 42.7207,-48.09261c-0.66064,-19.06891 -10.69922,-33.55791 -28.48682,-40.20317c-5.84912,-2.01937 -10.69629,-2.28856 -16.86035,-1.94819z" fill="#00e4a5"/><path d="M142.32729,147.36516l0.01465,-0.15964c0.15366,-1.88551 -0.08394,-3.88862 -0.07236,-5.80855l-0.0082,-17.3218l0.0832,-61.74855c0.00425,-1.99228 0.24302,-13.39891 -0.19307,-14.35939l-0.22046,-0.14499c-1.17744,0.424 -3.04146,3.64477 -3.90688,4.71289c-4.11694,5.09734 -8.00479,10.43107 -12.04834,15.57865c-1.14463,1.45712 -3.59341,1.61588 -5.27227,1.46605c-2.04521,-0.18249 -11.66045,0.3805 -12.96431,-0.41257c-0.08232,-0.63475 0.42539,-2.00883 0.79277,-2.44644c0.58433,-0.69612 1.28936,-1.01818 1.89111,-1.82736c3.88682,-5.22667 7.78579,-10.45495 11.68945,-15.66902l17.27988,-23.00952c3.00439,-4.06056 5.92837,-8.13387 8.72373,-12.34023c0.2373,-0.35793 0.63721,-0.67768 1.00342,-0.90107c0.94922,0.22953 3.06592,3.62586 3.73535,4.58253c1.43408,2.03402 2.88574,4.05456 4.35791,6.06119c8.10205,10.91629 16.2876,21.77136 24.55518,32.56389c1.9248,2.57313 3.87012,5.13044 5.8374,7.6715c1.44141,1.85695 2.98828,3.3394 3.79834,5.5994c-2.74219,0.21456 -6.00879,0.13518 -8.80371,0.13298c-2.88574,-0.0022 -6.28418,0.08436 -9.09375,-0.22145l-0.15381,-0.11687c-2.84473,-2.19922 -15.30322,-21.37373 -16.61572,-21.41693c-0.78369,1.05758 -0.23877,7.78984 -0.23877,9.46591l-0.09521,18.45612l-0.09668,38.82925l0.05127,11.72137c0.00293,2.42814 0.43799,5.86127 -1.14404,7.74898c-3.90381,4.65694 -7.72119,9.40572 -11.66807,14.02253c-0.33545,0.39397 -0.82515,0.60634 -1.29712,0.78648c-0.61655,0.13474 -1.13496,0.30024 -1.39468,-0.35736c0.35903,-0.848 0.57729,-0.84946 1.47378,-1.13798z" fill="#00e4a5"/><path d="M142.24819,148.8605c-0.61655,0.13474 -1.13496,0.30024 -1.39468,-0.35736c0.35903,-0.848 0.57729,-0.84946 1.47378,-1.13798c0.05933,0.69714 0.06182,0.81285 -0.0791,1.49534z" fill="#71cab3"/></g></svg></svg>